<svg width="28" height="28" viewBox="0 0 28 28" fill="none" xmlns="http://www.w3.org/2000/svg">
<path d="M4.91667 11.6619V11.6608C4.91667 6.65859 8.9918 2.58325 14 2.58325C19.0081 2.58325 23.0833 6.65849 23.0833 11.6666L23.0833 11.6677C23.0998 15.3265 20.8219 18.7661 18.4947 21.3155C17.3358 22.5851 16.1751 23.6227 15.3038 24.343C14.8684 24.7029 14.5057 24.9832 14.2524 25.1732C14.1491 25.2507 14.064 25.3131 13.9996 25.3598C13.4292 24.9514 11.3819 23.4374 9.37288 21.221C7.09188 18.7044 4.90018 15.3256 4.91667 11.6619ZM9.08333 11.6666C9.08333 14.383 11.2836 16.5833 14 16.5833C16.7164 16.5833 18.9167 14.383 18.9167 11.6666C18.9167 8.95018 16.7164 6.74992 14 6.74992C11.2836 6.74992 9.08333 8.95018 9.08333 11.6666Z" fill="#002ED0" stroke="white" stroke-width="0.5"/>
</svg>
