<svg width="40" height="40" viewBox="0 0 40 40" fill="none" xmlns="http://www.w3.org/2000/svg">
<rect width="40" height="40" fill="#F5F5F5" style="fill:#F5F5F5;fill:color(display-p3 0.9608 0.9608 0.9608);fill-opacity:1;"/>
<g clip-path="url(#clip0_154_857)">
<rect width="1440" height="4896" transform="translate(-1344 -30)" fill="#F5F6FB" style="fill:#F5F6FB;fill:color(display-p3 0.9608 0.9647 0.9843);fill-opacity:1;"/>
<rect x="-1344" y="-30" width="1440" height="774" fill="#F5F6FB" style="fill:#F5F6FB;fill:color(display-p3 0.9608 0.9647 0.9843);fill-opacity:1;"/>
<g clip-path="url(#clip1_154_857)" filter="url(#filter0_d_154_857)">
<path d="M-1344 -30H96V69H-1344V-30Z" fill="#FBFBFD" style="fill:#FBFBFD;fill:color(display-p3 0.9843 0.9843 0.9922);fill-opacity:1;"/>
<circle cx="20" cy="20" r="20" fill="#0003FB" style="fill:#0003FB;fill:color(display-p3 0.0000 0.0118 0.9843);fill-opacity:1;"/>
<g clip-path="url(#clip2_154_857)">
<path d="M14.62 18.79C16.06 21.62 18.38 23.93 21.21 25.38L23.41 23.18C23.68 22.91 24.08 22.82 24.43 22.94C25.55 23.31 26.76 23.51 28 23.51C28.55 23.51 29 23.96 29 24.51V28C29 28.55 28.55 29 28 29C18.61 29 11 21.39 11 12C11 11.45 11.45 11 12 11H15.5C16.05 11 16.5 11.45 16.5 12C16.5 13.25 16.7 14.45 17.07 15.57C17.18 15.92 17.1 16.31 16.82 16.59L14.62 18.79Z" fill="white" style="fill:white;fill:white;fill-opacity:1;"/>
</g>
</g>
</g>
<defs>
<filter id="filter0_d_154_857" x="-1352" y="-37" width="1456" height="115" filterUnits="userSpaceOnUse" color-interpolation-filters="sRGB">
<feFlood flood-opacity="0" result="BackgroundImageFix"/>
<feColorMatrix in="SourceAlpha" type="matrix" values="0 0 0 0 0 0 0 0 0 0 0 0 0 0 0 0 0 0 127 0" result="hardAlpha"/>
<feOffset dy="1"/>
<feGaussianBlur stdDeviation="4"/>
<feComposite in2="hardAlpha" operator="out"/>
<feColorMatrix type="matrix" values="0 0 0 0 0 0 0 0 0 0 0 0 0 0 0 0 0 0 0.05 0"/>
<feBlend mode="normal" in2="BackgroundImageFix" result="effect1_dropShadow_154_857"/>
<feBlend mode="normal" in="SourceGraphic" in2="effect1_dropShadow_154_857" result="shape"/>
</filter>
<clipPath id="clip0_154_857">
<rect width="1440" height="4896" fill="white" style="fill:white;fill:white;fill-opacity:1;" transform="translate(-1344 -30)"/>
</clipPath>
<clipPath id="clip1_154_857">
<rect width="1440" height="99" fill="white" style="fill:white;fill:white;fill-opacity:1;" transform="translate(-1344 -30)"/>
</clipPath>
<clipPath id="clip2_154_857">
<rect width="24" height="24" fill="white" style="fill:white;fill:white;fill-opacity:1;" transform="translate(8 8)"/>
</clipPath>
</defs>
</svg>
