<svg width="28" height="28" viewBox="0 0 28 28" fill="none" xmlns="http://www.w3.org/2000/svg">
<path d="M7 5.25C6.07174 5.25 5.1815 5.61875 4.52513 6.27513C3.86875 6.9315 3.5 7.82174 3.5 8.75V9.10175L14 14.756L24.5 9.1035V8.75C24.5 7.82174 24.1313 6.9315 23.4749 6.27513C22.8185 5.61875 21.9283 5.25 21 5.25H7ZM24.5 11.0897L14.4148 16.52C14.2873 16.5886 14.1448 16.6245 14 16.6245C13.8552 16.6245 13.7127 16.5886 13.5852 16.52L3.5 11.0897V19.25C3.5 20.1783 3.86875 21.0685 4.52513 21.7249C5.1815 22.3813 6.07174 22.75 7 22.75H21C21.9283 22.75 22.8185 22.3813 23.4749 21.7249C24.1313 21.0685 24.5 20.1783 24.5 19.25V11.0897Z" fill="#002ED0"/>
</svg>
