<svg width="28" height="28" viewBox="0 0 28 28" fill="none" xmlns="http://www.w3.org/2000/svg">
<path d="M22.435 17.8029L19.4717 17.4646C19.1232 17.4236 18.77 17.4622 18.4386 17.5774C18.1072 17.6926 17.8063 17.8814 17.5583 18.1296L15.4117 20.2762C12.0997 18.5918 9.40773 15.8998 7.72332 12.5879L9.88165 10.4296C10.3833 9.9279 10.6283 9.2279 10.5467 8.51623L10.2083 5.57623C10.1422 5.0071 9.86904 4.48217 9.44093 4.10139C9.01281 3.7206 8.45961 3.51055 7.88665 3.51123H5.86832C4.54999 3.51123 3.45332 4.6079 3.53499 5.92623C4.15332 15.8896 12.1217 23.8462 22.0733 24.4646C23.3917 24.5462 24.4883 23.4496 24.4883 22.1312V20.1129C24.5 18.9346 23.6133 17.9429 22.435 17.8029Z" fill="#002ED0"/>
</svg>
