<svg width="211" height="110" viewBox="0 0 211 110" fill="none" xmlns="http://www.w3.org/2000/svg">
<mask id="path-1-outside-1_1235_893" maskUnits="userSpaceOnUse" x="-1" y="20" width="208" height="67" fill="black">
<rect fill="white" x="-1" y="20" width="208" height="67"/>
<path d="M52.93 41.4518H64.5882L51.0579 84H40.591L32.7621 58.2158L24.9333 84H14.4664L0.936061 41.4518H12.5943L19.8275 67.5764L27.5713 41.4518H37.953L45.6968 67.6615L52.93 41.4518ZM102.967 78.724C98.5985 83.0356 93.2658 85.1914 86.9686 85.1914C80.6715 85.1914 75.3388 83.0356 70.9705 78.724C66.6589 74.3557 64.5031 69.023 64.5031 62.7259C64.5031 56.4287 66.6589 51.1244 70.9705 46.8128C75.3388 42.4445 80.6715 40.2604 86.9686 40.2604C93.2658 40.2604 98.5985 42.4445 102.967 46.8128C107.335 51.1244 109.519 56.4287 109.519 62.7259C109.519 69.023 107.335 74.3557 102.967 78.724ZM78.7143 71.1504C80.9268 73.3629 83.6782 74.4692 86.9686 74.4692C90.259 74.4692 93.0105 73.3629 95.223 71.1504C97.4355 68.9379 98.5417 66.1297 98.5417 62.7259C98.5417 59.322 97.4355 56.5138 95.223 54.3013C93.0105 52.0888 90.259 50.9826 86.9686 50.9826C83.6782 50.9826 80.9268 52.0888 78.7143 54.3013C76.5585 56.5138 75.4806 59.322 75.4806 62.7259C75.4806 66.1297 76.5585 68.9379 78.7143 71.1504ZM126.092 48.7701C127.113 46.047 128.786 44.0046 131.112 42.6431C133.495 41.2816 136.133 40.6008 139.026 40.6008V52.8547C135.679 52.4576 132.673 53.1383 130.006 54.897C127.397 56.6557 126.092 59.5773 126.092 63.6619V84H115.114V41.4518H126.092V48.7701ZM143.319 84V21.8796H154.297V84H143.319ZM194.468 24.4325H205.446V84H194.468V78.9793C191.234 83.1207 186.639 85.1914 180.682 85.1914C174.953 85.1914 170.045 83.0356 165.961 78.724C161.933 74.3557 159.919 69.023 159.919 62.7259C159.919 56.4287 161.933 51.1244 165.961 46.8128C170.045 42.4445 174.953 40.2604 180.682 40.2604C186.639 40.2604 191.234 42.3311 194.468 46.4724V24.4325ZM174.215 71.4057C176.484 73.6182 179.321 74.7245 182.725 74.7245C186.129 74.7245 188.937 73.6182 191.149 71.4057C193.362 69.1365 194.468 66.2432 194.468 62.7259C194.468 59.2086 193.362 56.3436 191.149 54.1311C188.937 51.8619 186.129 50.7273 182.725 50.7273C179.321 50.7273 176.484 51.8619 174.215 54.1311C172.003 56.3436 170.896 59.2086 170.896 62.7259C170.896 66.2432 172.003 69.1365 174.215 71.4057Z"/>
</mask>
<path d="M52.93 41.4518V40.4518H52.1686L51.9661 41.1857L52.93 41.4518ZM64.5882 41.4518L65.5412 41.7548L65.9556 40.4518H64.5882V41.4518ZM51.0579 84V85H51.7892L52.0109 84.303L51.0579 84ZM40.591 84L39.6342 84.2905L39.8496 85H40.591V84ZM32.7621 58.2158L33.719 57.9252L32.7621 54.7738L31.8053 57.9252L32.7621 58.2158ZM24.9333 84V85H25.6747L25.8901 84.2905L24.9333 84ZM14.4664 84L13.5134 84.303L13.7351 85H14.4664V84ZM0.936061 41.4518V40.4518H-0.431283L-0.0169144 41.7548L0.936061 41.4518ZM12.5943 41.4518L13.558 41.1849L13.355 40.4518H12.5943V41.4518ZM19.8275 67.5764L18.8637 67.8432L19.7947 71.2057L20.7862 67.8606L19.8275 67.5764ZM27.5713 41.4518V40.4518H26.8247L26.6125 41.1676L27.5713 41.4518ZM37.953 41.4518L38.9121 41.1684L38.7003 40.4518H37.953V41.4518ZM45.6968 67.6615L44.7378 67.9448L45.7296 71.3017L46.6608 67.9275L45.6968 67.6615ZM52.93 42.4518H64.5882V40.4518H52.93V42.4518ZM63.6353 41.1487L50.1049 83.697L52.0109 84.303L65.5412 41.7548L63.6353 41.1487ZM51.0579 83H40.591V85H51.0579V83ZM41.5479 83.7095L33.719 57.9252L31.8053 58.5063L39.6342 84.2905L41.5479 83.7095ZM31.8053 57.9252L23.9764 83.7095L25.8901 84.2905L33.719 58.5063L31.8053 57.9252ZM24.9333 83H14.4664V85H24.9333V83ZM15.4194 83.697L1.88904 41.1487L-0.0169144 41.7548L13.5134 84.303L15.4194 83.697ZM0.936061 42.4518H12.5943V40.4518H0.936061V42.4518ZM11.6305 41.7186L18.8637 67.8432L20.7912 67.3095L13.558 41.1849L11.6305 41.7186ZM20.7862 67.8606L28.53 41.736L26.6125 41.1676L18.8687 67.2922L20.7862 67.8606ZM27.5713 42.4518H37.953V40.4518H27.5713V42.4518ZM36.994 41.7351L44.7378 67.9448L46.6558 67.3781L38.9121 41.1684L36.994 41.7351ZM46.6608 67.9275L53.894 41.7178L51.9661 41.1857L44.7328 67.3954L46.6608 67.9275ZM102.967 78.724L103.669 79.4357L103.674 79.4311L102.967 78.724ZM70.9705 78.724L70.2587 79.4265L70.268 79.4357L70.9705 78.724ZM70.9705 46.8128L71.6776 47.5199L70.9705 46.8128ZM102.967 46.8128L102.26 47.52L102.264 47.5245L102.967 46.8128ZM78.7142 71.1504L77.998 71.8484L78.0071 71.8575L78.7142 71.1504ZM78.7142 54.3013L78.0071 53.5942L77.998 53.6035L78.7142 54.3013ZM102.264 78.0123C98.0885 82.1339 93.0104 84.1914 86.9686 84.1914V86.1914C93.5211 86.1914 99.1084 83.9373 103.669 79.4357L102.264 78.0123ZM86.9686 84.1914C80.9268 84.1914 75.8487 82.1339 71.6729 78.0123L70.268 79.4357C74.8288 83.9373 80.4162 86.1914 86.9686 86.1914V84.1914ZM71.6822 78.0215C67.5606 73.8458 65.5031 68.7677 65.5031 62.7259H63.5031C63.5031 69.2783 65.7572 74.8657 70.2588 79.4265L71.6822 78.0215ZM65.5031 62.7259C65.5031 56.6842 67.5603 51.6372 71.6776 47.5199L70.2634 46.1057C65.7575 50.6116 63.5031 56.1732 63.5031 62.7259H65.5031ZM71.6776 47.5199C75.8543 43.3432 80.9309 41.2604 86.9686 41.2604V39.2604C80.412 39.2604 74.8232 41.5459 70.2634 46.1057L71.6776 47.5199ZM86.9686 41.2604C93.0063 41.2604 98.0829 43.3432 102.26 47.5199L103.674 46.1057C99.114 41.5459 93.5252 39.2604 86.9686 39.2604V41.2604ZM102.264 47.5245C106.437 51.6428 108.519 56.6884 108.519 62.7259H110.519C110.519 56.169 108.233 50.606 103.669 46.1011L102.264 47.5245ZM108.519 62.7259C108.519 68.7635 106.436 73.8402 102.26 78.0169L103.674 79.4311C108.234 74.8713 110.519 69.2825 110.519 62.7259H108.519ZM78.0071 71.8575C80.4177 74.2681 83.4282 75.4692 86.9686 75.4692V73.4692C83.9282 73.4692 81.4358 72.4578 79.4214 70.4433L78.0071 71.8575ZM86.9686 75.4692C90.509 75.4692 93.5195 74.2681 95.9301 71.8575L94.5159 70.4433C92.5014 72.4578 90.009 73.4692 86.9686 73.4692V75.4692ZM95.9301 71.8575C98.3475 69.4401 99.5417 66.3693 99.5417 62.7259H97.5417C97.5417 65.8902 96.5234 68.4358 94.5159 70.4433L95.9301 71.8575ZM99.5417 62.7259C99.5417 59.0825 98.3475 56.0117 95.9301 53.5942L94.5159 55.0084C96.5234 57.016 97.5417 59.5616 97.5417 62.7259H99.5417ZM95.9301 53.5942C93.5195 51.1837 90.509 49.9826 86.9686 49.9826V51.9826C90.009 51.9826 92.5014 52.994 94.5159 55.0084L95.9301 53.5942ZM86.9686 49.9826C83.4282 49.9826 80.4177 51.1837 78.0071 53.5942L79.4214 55.0084C81.4358 52.994 83.9282 51.9826 86.9686 51.9826V49.9826ZM77.998 53.6035C75.641 56.0225 74.4806 59.0904 74.4806 62.7259H76.4806C76.4806 59.5537 77.476 57.0051 79.4305 54.9992L77.998 53.6035ZM74.4806 62.7259C74.4806 66.3614 75.641 69.4292 77.998 71.8483L79.4305 70.4526C77.476 68.4466 76.4806 65.8981 76.4806 62.7259H74.4806ZM126.092 48.7701H125.092L127.028 49.1212L126.092 48.7701ZM131.112 42.6431L130.616 41.7748L130.607 41.7801L131.112 42.6431ZM139.026 40.6008H140.026V39.6008H139.026V40.6008ZM139.026 52.8547L138.909 53.8477L140.026 53.9803V52.8547H139.026ZM130.006 54.897L129.456 54.0622L129.447 54.0677L130.006 54.897ZM126.092 84V85H127.092V84H126.092ZM115.114 84H114.114V85H115.114V84ZM115.114 41.4518V40.4518H114.114V41.4518H115.114ZM126.092 41.4518H127.092V40.4518H126.092V41.4518ZM127.028 49.1212C127.975 46.5949 129.506 44.7421 131.618 43.5061L130.607 41.7801C128.067 43.2671 126.25 45.499 125.155 48.4189L127.028 49.1212ZM131.609 43.5113C133.832 42.2409 136.297 41.6008 139.026 41.6008V39.6008C135.969 39.6008 133.158 40.3222 130.616 41.7749L131.609 43.5113ZM138.026 40.6008V52.8547H140.026V40.6008H138.026ZM139.144 51.8616C135.577 51.4384 132.331 52.166 129.456 54.0622L130.557 55.7318C133.014 54.1107 135.782 53.4768 138.909 53.8477L139.144 51.8616ZM129.447 54.0677C126.481 56.0666 125.092 59.3554 125.092 63.6619H127.092C127.092 59.7992 128.312 57.2447 130.565 55.7263L129.447 54.0677ZM125.092 63.6619V84H127.092V63.6619H125.092ZM126.092 83H115.114V85H126.092V83ZM116.114 84V41.4518H114.114V84H116.114ZM115.114 42.4518H126.092V40.4518H115.114V42.4518ZM125.092 41.4518V48.7701H127.092V41.4518H125.092ZM143.319 84H142.319V85H143.319V84ZM143.319 21.8796V20.8796H142.319V21.8796H143.319ZM154.297 21.8796H155.297V20.8796H154.297V21.8796ZM154.297 84V85H155.297V84H154.297ZM144.319 84V21.8796H142.319V84H144.319ZM143.319 22.8796H154.297V20.8796H143.319V22.8796ZM153.297 21.8796V84H155.297V21.8796H153.297ZM154.297 83H143.319V85H154.297V83ZM194.468 24.4325V23.4325H193.468V24.4325H194.468ZM205.446 24.4325H206.446V23.4325H205.446V24.4325ZM205.446 84V85H206.446V84H205.446ZM194.468 84H193.468V85H194.468V84ZM194.468 78.9793H195.468V76.0737L193.68 78.3639L194.468 78.9793ZM165.961 78.724L165.226 79.402L165.235 79.4118L165.961 78.724ZM165.961 46.8128L165.23 46.1298L165.23 46.1302L165.961 46.8128ZM194.468 46.4724L193.68 47.0879L195.468 49.378V46.4724H194.468ZM174.215 71.4057L173.499 72.1038L173.508 72.1129L173.517 72.1217L174.215 71.4057ZM191.149 71.4057L191.856 72.1129L191.865 72.1038L191.149 71.4057ZM191.149 54.1311L190.433 54.8293L190.442 54.8382L191.149 54.1311ZM174.215 54.1311L173.508 53.424L174.215 54.1311ZM194.468 25.4325H205.446V23.4325H194.468V25.4325ZM204.446 24.4325V84H206.446V24.4325H204.446ZM205.446 83H194.468V85H205.446V83ZM195.468 84V78.9793H193.468V84H195.468ZM193.68 78.3639C190.663 82.2279 186.378 84.1914 180.682 84.1914V86.1914C186.9 86.1914 191.806 84.0134 195.256 79.5947L193.68 78.3639ZM180.682 84.1914C175.238 84.1914 170.59 82.1567 166.687 78.0363L165.235 79.4118C169.501 83.9145 174.667 86.1914 180.682 86.1914V84.1914ZM166.696 78.0461C162.849 73.8743 160.919 68.7883 160.919 62.7259H158.919C158.919 69.2578 161.017 74.8372 165.226 79.4019L166.696 78.0461ZM160.919 62.7259C160.919 56.6635 162.849 51.6086 166.691 47.4955L165.23 46.1302C161.017 50.6402 158.919 56.194 158.919 62.7259H160.919ZM166.691 47.4958C170.596 43.3198 175.243 41.2604 180.682 41.2604V39.2604C174.662 39.2604 169.495 41.5693 165.23 46.1298L166.691 47.4958ZM180.682 41.2604C186.378 41.2604 190.663 43.2238 193.68 47.0879L195.256 45.857C191.806 41.4383 186.9 39.2604 180.682 39.2604V41.2604ZM195.468 46.4724V24.4325H193.468V46.4724H195.468ZM173.517 72.1217C175.988 74.5306 179.081 75.7245 182.725 75.7245V73.7245C179.56 73.7245 176.981 72.7058 174.913 70.6897L173.517 72.1217ZM182.725 75.7245C186.368 75.7245 189.439 74.5303 191.856 72.1128L190.442 70.6986C188.435 72.7062 185.889 73.7245 182.725 73.7245V75.7245ZM191.865 72.1038C194.281 69.6266 195.468 66.4728 195.468 62.7259H193.468C193.468 66.0136 192.443 68.6464 190.433 70.7076L191.865 72.1038ZM195.468 62.7259C195.468 58.9793 194.28 55.848 191.856 53.424L190.442 54.8382C192.443 56.8392 193.468 59.4378 193.468 62.7259H195.468ZM191.865 53.433C189.45 50.9554 186.376 49.7273 182.725 49.7273V51.7273C185.881 51.7273 188.424 52.7683 190.433 54.8292L191.865 53.433ZM182.725 49.7273C179.074 49.7273 175.977 50.955 173.508 53.424L174.922 54.8382C176.992 52.7688 179.568 51.7273 182.725 51.7273V49.7273ZM173.508 53.424C171.084 55.848 169.896 58.9793 169.896 62.7259H171.896C171.896 59.4378 172.921 56.8392 174.922 54.8382L173.508 53.424ZM169.896 62.7259C169.896 66.4728 171.084 69.6266 173.499 72.1038L174.931 70.7076C172.921 68.6464 171.896 66.0136 171.896 62.7259H169.896Z" fill="#98ABEE" mask="url(#path-1-outside-1_1235_893)"/>
<mask id="mask0_1235_893" style="mask-type:alpha" maskUnits="userSpaceOnUse" x="0" y="21" width="206" height="65">
<mask id="path-3-outside-2_1235_893" maskUnits="userSpaceOnUse" x="-1" y="20" width="208" height="67" fill="black">
<rect fill="white" x="-1" y="20" width="208" height="67"/>
<path d="M52.93 41.4518H64.5882L51.0579 84H40.591L32.7621 58.2158L24.9333 84H14.4664L0.936061 41.4518H12.5943L19.8275 67.5764L27.5713 41.4518H37.953L45.6968 67.6615L52.93 41.4518ZM102.967 78.724C98.5985 83.0356 93.2658 85.1914 86.9686 85.1914C80.6715 85.1914 75.3388 83.0356 70.9705 78.724C66.6589 74.3557 64.5031 69.023 64.5031 62.7259C64.5031 56.4287 66.6589 51.1244 70.9705 46.8128C75.3388 42.4445 80.6715 40.2604 86.9686 40.2604C93.2658 40.2604 98.5985 42.4445 102.967 46.8128C107.335 51.1244 109.519 56.4287 109.519 62.7259C109.519 69.023 107.335 74.3557 102.967 78.724ZM78.7143 71.1504C80.9268 73.3629 83.6782 74.4692 86.9686 74.4692C90.259 74.4692 93.0105 73.3629 95.223 71.1504C97.4355 68.9379 98.5417 66.1297 98.5417 62.7259C98.5417 59.322 97.4355 56.5138 95.223 54.3013C93.0105 52.0888 90.259 50.9826 86.9686 50.9826C83.6782 50.9826 80.9268 52.0888 78.7143 54.3013C76.5585 56.5138 75.4806 59.322 75.4806 62.7259C75.4806 66.1297 76.5585 68.9379 78.7143 71.1504ZM126.092 48.7701C127.113 46.047 128.786 44.0046 131.112 42.6431C133.495 41.2816 136.133 40.6008 139.026 40.6008V52.8547C135.679 52.4576 132.673 53.1383 130.006 54.897C127.397 56.6557 126.092 59.5773 126.092 63.6619V84H115.114V41.4518H126.092V48.7701ZM143.319 84V21.8796H154.297V84H143.319ZM194.468 24.4325H205.446V84H194.468V78.9793C191.234 83.1207 186.639 85.1914 180.682 85.1914C174.953 85.1914 170.045 83.0356 165.961 78.724C161.933 74.3557 159.919 69.023 159.919 62.7259C159.919 56.4287 161.933 51.1244 165.961 46.8128C170.045 42.4445 174.953 40.2604 180.682 40.2604C186.639 40.2604 191.234 42.3311 194.468 46.4724V24.4325ZM174.215 71.4057C176.484 73.6182 179.321 74.7245 182.725 74.7245C186.129 74.7245 188.937 73.6182 191.149 71.4057C193.362 69.1365 194.468 66.2432 194.468 62.7259C194.468 59.2086 193.362 56.3436 191.149 54.1311C188.937 51.8619 186.129 50.7273 182.725 50.7273C179.321 50.7273 176.484 51.8619 174.215 54.1311C172.003 56.3436 170.896 59.2086 170.896 62.7259C170.896 66.2432 172.003 69.1365 174.215 71.4057Z"/>
</mask>
<path d="M52.93 41.4518V40.4518H52.1686L51.9661 41.1857L52.93 41.4518ZM64.5882 41.4518L65.5412 41.7548L65.9556 40.4518H64.5882V41.4518ZM51.0579 84V85H51.7892L52.0109 84.303L51.0579 84ZM40.591 84L39.6342 84.2905L39.8496 85H40.591V84ZM32.7621 58.2158L33.719 57.9252L32.7621 54.7738L31.8053 57.9252L32.7621 58.2158ZM24.9333 84V85H25.6747L25.8901 84.2905L24.9333 84ZM14.4664 84L13.5134 84.303L13.7351 85H14.4664V84ZM0.936061 41.4518V40.4518H-0.431283L-0.0169144 41.7548L0.936061 41.4518ZM12.5943 41.4518L13.558 41.1849L13.355 40.4518H12.5943V41.4518ZM19.8275 67.5764L18.8637 67.8432L19.7947 71.2057L20.7862 67.8606L19.8275 67.5764ZM27.5713 41.4518V40.4518H26.8247L26.6125 41.1676L27.5713 41.4518ZM37.953 41.4518L38.9121 41.1684L38.7003 40.4518H37.953V41.4518ZM45.6968 67.6615L44.7378 67.9448L45.7296 71.3017L46.6608 67.9275L45.6968 67.6615ZM52.93 42.4518H64.5882V40.4518H52.93V42.4518ZM63.6353 41.1487L50.1049 83.697L52.0109 84.303L65.5412 41.7548L63.6353 41.1487ZM51.0579 83H40.591V85H51.0579V83ZM41.5479 83.7095L33.719 57.9252L31.8053 58.5063L39.6342 84.2905L41.5479 83.7095ZM31.8053 57.9252L23.9764 83.7095L25.8901 84.2905L33.719 58.5063L31.8053 57.9252ZM24.9333 83H14.4664V85H24.9333V83ZM15.4194 83.697L1.88904 41.1487L-0.0169144 41.7548L13.5134 84.303L15.4194 83.697ZM0.936061 42.4518H12.5943V40.4518H0.936061V42.4518ZM11.6305 41.7186L18.8637 67.8432L20.7912 67.3095L13.558 41.1849L11.6305 41.7186ZM20.7862 67.8606L28.53 41.736L26.6125 41.1676L18.8687 67.2922L20.7862 67.8606ZM27.5713 42.4518H37.953V40.4518H27.5713V42.4518ZM36.994 41.7351L44.7378 67.9448L46.6558 67.3781L38.9121 41.1684L36.994 41.7351ZM46.6608 67.9275L53.894 41.7178L51.9661 41.1857L44.7328 67.3954L46.6608 67.9275ZM102.967 78.724L103.669 79.4357L103.674 79.4311L102.967 78.724ZM70.9705 78.724L70.2587 79.4265L70.268 79.4357L70.9705 78.724ZM70.9705 46.8128L71.6776 47.5199L70.9705 46.8128ZM102.967 46.8128L102.26 47.52L102.264 47.5245L102.967 46.8128ZM78.7142 71.1504L77.998 71.8484L78.0071 71.8575L78.7142 71.1504ZM78.7142 54.3013L78.0071 53.5942L77.998 53.6035L78.7142 54.3013ZM102.264 78.0123C98.0885 82.1339 93.0104 84.1914 86.9686 84.1914V86.1914C93.5211 86.1914 99.1084 83.9373 103.669 79.4357L102.264 78.0123ZM86.9686 84.1914C80.9268 84.1914 75.8487 82.1339 71.6729 78.0123L70.268 79.4357C74.8288 83.9373 80.4162 86.1914 86.9686 86.1914V84.1914ZM71.6822 78.0215C67.5606 73.8458 65.5031 68.7677 65.5031 62.7259H63.5031C63.5031 69.2783 65.7572 74.8657 70.2588 79.4265L71.6822 78.0215ZM65.5031 62.7259C65.5031 56.6842 67.5603 51.6372 71.6776 47.5199L70.2634 46.1057C65.7575 50.6116 63.5031 56.1732 63.5031 62.7259H65.5031ZM71.6776 47.5199C75.8543 43.3432 80.9309 41.2604 86.9686 41.2604V39.2604C80.412 39.2604 74.8232 41.5459 70.2634 46.1057L71.6776 47.5199ZM86.9686 41.2604C93.0063 41.2604 98.0829 43.3432 102.26 47.5199L103.674 46.1057C99.114 41.5459 93.5252 39.2604 86.9686 39.2604V41.2604ZM102.264 47.5245C106.437 51.6428 108.519 56.6884 108.519 62.7259H110.519C110.519 56.169 108.233 50.606 103.669 46.1011L102.264 47.5245ZM108.519 62.7259C108.519 68.7635 106.436 73.8402 102.26 78.0169L103.674 79.4311C108.234 74.8713 110.519 69.2825 110.519 62.7259H108.519ZM78.0071 71.8575C80.4177 74.2681 83.4282 75.4692 86.9686 75.4692V73.4692C83.9282 73.4692 81.4358 72.4578 79.4214 70.4433L78.0071 71.8575ZM86.9686 75.4692C90.509 75.4692 93.5195 74.2681 95.9301 71.8575L94.5159 70.4433C92.5014 72.4578 90.009 73.4692 86.9686 73.4692V75.4692ZM95.9301 71.8575C98.3475 69.4401 99.5417 66.3693 99.5417 62.7259H97.5417C97.5417 65.8902 96.5234 68.4358 94.5159 70.4433L95.9301 71.8575ZM99.5417 62.7259C99.5417 59.0825 98.3475 56.0117 95.9301 53.5942L94.5159 55.0084C96.5234 57.016 97.5417 59.5616 97.5417 62.7259H99.5417ZM95.9301 53.5942C93.5195 51.1837 90.509 49.9826 86.9686 49.9826V51.9826C90.009 51.9826 92.5014 52.994 94.5159 55.0084L95.9301 53.5942ZM86.9686 49.9826C83.4282 49.9826 80.4177 51.1837 78.0071 53.5942L79.4214 55.0084C81.4358 52.994 83.9282 51.9826 86.9686 51.9826V49.9826ZM77.998 53.6035C75.641 56.0225 74.4806 59.0904 74.4806 62.7259H76.4806C76.4806 59.5537 77.476 57.0051 79.4305 54.9992L77.998 53.6035ZM74.4806 62.7259C74.4806 66.3614 75.641 69.4292 77.998 71.8483L79.4305 70.4526C77.476 68.4466 76.4806 65.8981 76.4806 62.7259H74.4806ZM126.092 48.7701H125.092L127.028 49.1212L126.092 48.7701ZM131.112 42.6431L130.616 41.7748L130.607 41.7801L131.112 42.6431ZM139.026 40.6008H140.026V39.6008H139.026V40.6008ZM139.026 52.8547L138.909 53.8477L140.026 53.9803V52.8547H139.026ZM130.006 54.897L129.456 54.0622L129.447 54.0677L130.006 54.897ZM126.092 84V85H127.092V84H126.092ZM115.114 84H114.114V85H115.114V84ZM115.114 41.4518V40.4518H114.114V41.4518H115.114ZM126.092 41.4518H127.092V40.4518H126.092V41.4518ZM127.028 49.1212C127.975 46.5949 129.506 44.7421 131.618 43.5061L130.607 41.7801C128.067 43.2671 126.25 45.499 125.155 48.4189L127.028 49.1212ZM131.609 43.5113C133.832 42.2409 136.297 41.6008 139.026 41.6008V39.6008C135.969 39.6008 133.158 40.3222 130.616 41.7749L131.609 43.5113ZM138.026 40.6008V52.8547H140.026V40.6008H138.026ZM139.144 51.8616C135.577 51.4384 132.331 52.166 129.456 54.0622L130.557 55.7318C133.014 54.1107 135.782 53.4768 138.909 53.8477L139.144 51.8616ZM129.447 54.0677C126.481 56.0666 125.092 59.3554 125.092 63.6619H127.092C127.092 59.7992 128.312 57.2447 130.565 55.7263L129.447 54.0677ZM125.092 63.6619V84H127.092V63.6619H125.092ZM126.092 83H115.114V85H126.092V83ZM116.114 84V41.4518H114.114V84H116.114ZM115.114 42.4518H126.092V40.4518H115.114V42.4518ZM125.092 41.4518V48.7701H127.092V41.4518H125.092ZM143.319 84H142.319V85H143.319V84ZM143.319 21.8796V20.8796H142.319V21.8796H143.319ZM154.297 21.8796H155.297V20.8796H154.297V21.8796ZM154.297 84V85H155.297V84H154.297ZM144.319 84V21.8796H142.319V84H144.319ZM143.319 22.8796H154.297V20.8796H143.319V22.8796ZM153.297 21.8796V84H155.297V21.8796H153.297ZM154.297 83H143.319V85H154.297V83ZM194.468 24.4325V23.4325H193.468V24.4325H194.468ZM205.446 24.4325H206.446V23.4325H205.446V24.4325ZM205.446 84V85H206.446V84H205.446ZM194.468 84H193.468V85H194.468V84ZM194.468 78.9793H195.468V76.0737L193.68 78.3639L194.468 78.9793ZM165.961 78.724L165.226 79.402L165.235 79.4118L165.961 78.724ZM165.961 46.8128L165.23 46.1298L165.23 46.1302L165.961 46.8128ZM194.468 46.4724L193.68 47.0879L195.468 49.378V46.4724H194.468ZM174.215 71.4057L173.499 72.1038L173.508 72.1129L173.517 72.1217L174.215 71.4057ZM191.149 71.4057L191.856 72.1129L191.865 72.1038L191.149 71.4057ZM191.149 54.1311L190.433 54.8293L190.442 54.8382L191.149 54.1311ZM174.215 54.1311L173.508 53.424L174.215 54.1311ZM194.468 25.4325H205.446V23.4325H194.468V25.4325ZM204.446 24.4325V84H206.446V24.4325H204.446ZM205.446 83H194.468V85H205.446V83ZM195.468 84V78.9793H193.468V84H195.468ZM193.68 78.3639C190.663 82.2279 186.378 84.1914 180.682 84.1914V86.1914C186.9 86.1914 191.806 84.0134 195.256 79.5947L193.68 78.3639ZM180.682 84.1914C175.238 84.1914 170.59 82.1567 166.687 78.0363L165.235 79.4118C169.501 83.9145 174.667 86.1914 180.682 86.1914V84.1914ZM166.696 78.0461C162.849 73.8743 160.919 68.7883 160.919 62.7259H158.919C158.919 69.2578 161.017 74.8372 165.226 79.4019L166.696 78.0461ZM160.919 62.7259C160.919 56.6635 162.849 51.6086 166.691 47.4955L165.23 46.1302C161.017 50.6402 158.919 56.194 158.919 62.7259H160.919ZM166.691 47.4958C170.596 43.3198 175.243 41.2604 180.682 41.2604V39.2604C174.662 39.2604 169.495 41.5693 165.23 46.1298L166.691 47.4958ZM180.682 41.2604C186.378 41.2604 190.663 43.2238 193.68 47.0879L195.256 45.857C191.806 41.4383 186.9 39.2604 180.682 39.2604V41.2604ZM195.468 46.4724V24.4325H193.468V46.4724H195.468ZM173.517 72.1217C175.988 74.5306 179.081 75.7245 182.725 75.7245V73.7245C179.56 73.7245 176.981 72.7058 174.913 70.6897L173.517 72.1217ZM182.725 75.7245C186.368 75.7245 189.439 74.5303 191.856 72.1128L190.442 70.6986C188.435 72.7062 185.889 73.7245 182.725 73.7245V75.7245ZM191.865 72.1038C194.281 69.6266 195.468 66.4728 195.468 62.7259H193.468C193.468 66.0136 192.443 68.6464 190.433 70.7076L191.865 72.1038ZM195.468 62.7259C195.468 58.9793 194.28 55.848 191.856 53.424L190.442 54.8382C192.443 56.8392 193.468 59.4378 193.468 62.7259H195.468ZM191.865 53.433C189.45 50.9554 186.376 49.7273 182.725 49.7273V51.7273C185.881 51.7273 188.424 52.7683 190.433 54.8292L191.865 53.433ZM182.725 49.7273C179.074 49.7273 175.977 50.955 173.508 53.424L174.922 54.8382C176.992 52.7688 179.568 51.7273 182.725 51.7273V49.7273ZM173.508 53.424C171.084 55.848 169.896 58.9793 169.896 62.7259H171.896C171.896 59.4378 172.921 56.8392 174.922 54.8382L173.508 53.424ZM169.896 62.7259C169.896 66.4728 171.084 69.6266 173.499 72.1038L174.931 70.7076C172.921 68.6464 171.896 66.0136 171.896 62.7259H169.896Z" fill="#98ABEE" mask="url(#path-3-outside-2_1235_893)"/>
</mask>
<g mask="url(#mask0_1235_893)">
<rect x="170.5" y="-30" width="115" height="167" transform="rotate(30 170.5 -30)" fill="#E1E1E1"/>
</g>
</svg>
